<?xml version="1.0" encoding="UTF-8"?>
<svg width="240px" height="133px" viewBox="0 0 240 133" version="1.1" xmlns="http://www.w3.org/2000/svg" xmlns:xlink="http://www.w3.org/1999/xlink">
    <!-- Generator: Sketch 42 (36781) - http://www.bohemiancoding.com/sketch -->
    <title>button--subscribe</title>
    <desc>Created with Sketch.</desc>
    <defs>
        <filter x="-50%" y="-50%" width="200%" height="200%" filterUnits="objectBoundingBox" id="filter-1">
            <feOffset dx="0" dy="10" in="SourceAlpha" result="shadowOffsetOuter1"></feOffset>
            <feGaussianBlur stdDeviation="5" in="shadowOffsetOuter1" result="shadowBlurOuter1"></feGaussianBlur>
            <feColorMatrix values="0 0 0 0 0.133333333   0 0 0 0 0.258823529   0 0 0 0 0.4  0 0 0 0.3 0" type="matrix" in="shadowBlurOuter1" result="shadowMatrixOuter1"></feColorMatrix>
            <feMerge>
                <feMergeNode in="shadowMatrixOuter1"></feMergeNode>
                <feMergeNode in="SourceGraphic"></feMergeNode>
            </feMerge>
        </filter>
    </defs>
    <g id="Page-1" stroke="none" stroke-width="1" fill="none" fill-rule="evenodd">
        <g id="Desktop-HD" transform="translate(-600.000000, -1623.000000)" fill-rule="nonzero">
            <g id="Body" transform="translate(84.000000, 550.000000)">
                <g id="button--subscribe" filter="url(#filter-1)" transform="translate(526.000000, 1073.000000)">
                    <g id="Layer_1">
                        <path d="M218.921569,85.3562148 C219.277451,85.3562148 220,85.3562148 220,85.38317 L220,26.5400521 C205.232298,26.6357593 193.172674,14.7643293 193.039216,0 L28.9558824,0 C28.9404093,7.093656 26.0932295,13.8876406 21.0464222,18.8736763 C15.9996148,23.8597121 9.17079744,26.6252104 2.07598039,26.5562252 C1.35882353,26.5562252 0.539215686,26.5023149 0,26.4484046 L0,85.38317 C0,85.38317 0.657843137,85.3562148 1.01372549,85.3562148 C8.15839525,85.3605007 15.0084974,88.2033371 20.0559897,93.2588768 C25.1034821,98.3144164 27.9345656,105.168201 27.9259804,112.311376 C27.9259804,112.429979 27.8936275,112.683358 27.8936275,112.683358 L191.960784,112.683358 L191.960784,112.144254 C191.966417,105.012352 194.814088,98.1766245 199.873819,93.1493125 C204.93355,88.1220005 211.788281,85.3174912 218.921569,85.3562148 L218.921569,85.3562148 Z" id="Shape" fill="#F4AF1C"></path>
                        <path d="M184.411765,102.429614 L33.9705882,102.429614 L33.9705882,11.3211679 L184.411765,11.3211679 L184.411765,102.429614 Z M38.2843137,97.5776851 L180.637255,97.5776851 L180.637255,15.6339937 L38.2843137,15.6339937 L38.2843137,97.5776851 Z" id="Shape" fill="#FFFFFF"></path>
                        <ellipse id="Oval" fill="#FFFFFF" cx="209.372059" cy="37.4353285" rx="5.05245098" ry="5.05139729"></ellipse>
                        <ellipse id="Oval" fill="#FFFFFF" cx="209.372059" cy="74.6388425" rx="5.05245098" ry="5.05139729"></ellipse>
                        <ellipse id="Oval" fill="#FFFFFF" cx="209.372059" cy="56.5681022" rx="5.05245098" ry="5.05139729"></ellipse>
                        <ellipse id="Oval" fill="#FFFFFF" cx="10.552451" cy="37.4353285" rx="5.05245098" ry="5.05139729"></ellipse>
                        <ellipse id="Oval" fill="#FFFFFF" cx="10.552451" cy="74.6388425" rx="5.05245098" ry="5.05139729"></ellipse>
                        <ellipse id="Oval" fill="#FFFFFF" cx="10.552451" cy="56.5681022" rx="5.05245098" ry="5.05139729"></ellipse>
                        <path d="M70.0279412,43.3762461 C70.0600808,44.6735226 69.8060229,45.9619534 69.2838235,47.1499687 C68.8207575,48.1917557 68.1253973,49.1137917 67.2509804,49.8454849 C66.3611542,50.5786763 65.3348632,51.1283604 64.2313725,51.4627946 C63.0251506,51.8276429 61.7709769,52.0093693 60.5107843,52.0018978 C59.9442293,51.994801 59.3801273,51.9261106 58.8284314,51.7970386 C58.2173203,51.6604658 57.5990196,51.4915468 56.9735294,51.2902815 C56.3480392,51.0890163 55.745915,50.869781 55.1671569,50.6325756 C54.5883987,50.3989642 54.0743464,50.1779319 53.625,49.9694786 L54.3151961,43.5002398 C55.2342076,44.045675 56.2278185,44.4542963 57.2647059,44.7132221 C58.3053125,44.9848278 59.3759957,45.1242955 60.4514706,45.1283316 L61.1740196,45.1283316 C61.4483329,45.114735 61.7199553,45.0676636 61.9828431,44.9881648 C62.2230034,44.9196339 62.4455494,44.8001093 62.6352941,44.6377477 C62.8191917,44.4635644 62.9160233,44.2165966 62.8995098,43.9638686 C62.9029369,43.7771709 62.8355047,43.5961048 62.7107843,43.4571116 C62.5754865,43.3088116 62.4100183,43.1911698 62.2254902,43.1120855 C62.0096155,43.0176473 61.7833921,42.9488897 61.5514706,42.9072263 C61.2998366,42.860504 61.0553922,42.8263608 60.8181373,42.8047967 C60.5808824,42.7832325 60.3562092,42.7724505 60.1441176,42.7724505 L59.6426471,42.7724505 C58.8032666,42.7836831 57.970371,42.6241086 57.1946078,42.3034307 C56.4797764,42.0050023 55.8351401,41.5606449 55.3019608,40.9988008 C54.7641577,40.4238581 54.34623,39.7476161 54.072549,39.0095099 C53.7751806,38.2112888 53.6271314,37.3652091 53.6357843,36.5134619 C53.6168634,35.3666196 53.8719689,34.2318217 54.379902,33.2033681 C54.8624798,32.243716 55.5401794,31.395391 56.3696078,30.7127112 C57.2184632,30.0184717 58.1869542,29.4849993 59.227451,29.1385297 C60.3010182,28.7768107 61.426923,28.5946635 62.5598039,28.5994265 C63.0702614,28.5994265 63.5968954,28.6173966 64.1397059,28.6533368 C65.2196791,28.7210037 66.28958,28.9016925 67.3318627,29.19244 C67.8312429,29.3315496 68.3182096,29.51187 68.7877451,29.7315433 L68.1946078,36.0875704 C67.4633034,35.8416338 66.7178333,35.6400028 65.9622549,35.4837748 C65.2123109,35.3248123 64.447982,35.2435177 63.6813725,35.2411783 L63.1421569,35.2411783 C62.9264706,35.2411783 62.7017974,35.2573514 62.4681373,35.2896976 C62.2290031,35.3169887 61.9914335,35.3565753 61.7563725,35.4083003 C61.5352587,35.4540457 61.3200098,35.5245747 61.1147059,35.6185506 C60.9383441,35.6982527 60.7831909,35.8182867 60.6617647,35.9689677 C60.4145928,36.3015378 60.4588292,36.7670861 60.7642157,37.0471741 C60.9471643,37.1996949 61.1603335,37.3117691 61.3897059,37.3760271 C61.6657369,37.459332 61.9492897,37.5153084 62.2362745,37.5431491 C62.5454248,37.5754953 62.8509804,37.5934654 63.1529412,37.5970594 L63.9995098,37.5970594 C64.2131403,37.5821947 64.427546,37.5821947 64.6411765,37.5970594 C65.4190532,37.63802 66.1829005,37.8207205 66.895098,38.1361627 C67.5365703,38.4206939 68.114213,38.8313764 68.5936275,39.3437539 C69.0728061,39.8595525 69.4399887,40.4689485 69.6720588,41.1335766 C69.9148137,41.8560931 70.0350977,42.6140885 70.0279412,43.3762461 L70.0279412,43.3762461 Z" id="Shape" fill="#FFFFFF"></path>
                        <path d="M86.5279412,29.693806 L85.6490196,36.2978206 C85.3523472,36.2153815 85.0493483,36.1576795 84.7431373,36.1253076 C84.4421989,36.0937343 84.1398447,36.0775401 83.8372549,36.0767883 C83.0912652,36.0740873 82.348688,36.1775545 81.6318627,36.3840772 C80.9599455,36.574402 80.3304301,36.8909236 79.7769608,37.3167258 C79.2380579,37.7357937 78.7996021,38.2699353 78.4936275,38.8801251 C78.1610028,39.5666435 77.9965069,40.3224276 78.0137255,41.0850574 C78.0027618,41.5668451 78.0908552,42.0457529 78.272549,42.4921168 C78.4335649,42.8740006 78.6830699,43.2121481 79.0004902,43.4786757 C79.3269138,43.7456172 79.7051282,43.9420274 80.1112745,44.0555162 C80.569051,44.1849044 81.0429283,44.2484379 81.5186275,44.2442023 C81.9243462,44.2427892 82.3289303,44.2012558 82.7264706,44.1202086 C83.1444772,44.0362238 83.5568705,43.9263952 83.9612745,43.7913556 C84.3667518,43.6568524 84.7645681,43.5002786 85.1529412,43.3223358 C85.5375817,43.1462287 85.8970588,42.9665276 86.2313725,42.7832325 L85.5897059,50.1366006 C85.1630138,50.3481128 84.7214876,50.52829 84.2686275,50.6757039 C83.7941176,50.8374348 83.3070261,50.9776017 82.8073529,51.0962044 C82.311354,51.2155977 81.8091116,51.3073863 81.3029412,51.371147 C80.8254023,51.4314927 80.3445731,51.4621009 79.8632353,51.4627946 C76.0595512,51.504618 72.6159778,49.2200667 71.1764706,45.699781 C70.6846062,44.5029748 70.4371058,43.2199071 70.4485294,41.9260584 C70.4257336,40.218113 70.6713734,38.5171846 71.1764706,36.8854432 C71.6529203,35.3677066 72.4182605,33.9563328 73.4303922,32.7289572 C74.4358234,31.5276757 75.6955673,30.5646513 77.1186275,29.9094473 C78.7089539,29.1940335 80.438297,28.8405035 82.1818627,28.8743691 C82.9238747,28.8761117 83.6646995,28.9337794 84.3980392,29.0468822 C85.1367598,29.153072 85.8549754,29.3712185 86.5279412,29.693806 Z" id="Shape" fill="#FFFFFF"></path>
                        <polygon id="Shape" fill="#FFFFFF" points="106.101471 51.705391 98.2720588 52.0827633 98.2073529 44.8479979 94.6053922 44.8479979 94.3627451 51.705391 87.3529412 51.705391 87.9460784 29.693806 95.3980392 30.0388321 94.9289216 41.2791345 98.4068627 41.2791345 98.4392157 29.19244 105.578431 29.3811262"></polygon>
                        <path d="M125.939216,36.6158916 C125.946614,37.3597749 125.876132,38.1023903 125.728922,38.8316058 C125.597894,39.4680792 125.374451,40.0819674 125.065686,40.6537748 C124.752073,41.221265 124.355924,41.7390582 123.890196,42.190219 C123.360465,42.69928 122.778484,43.1510338 122.153922,43.5379771 L125.879902,50.1743379 L118.832353,51.5544421 L116.416667,44.8803441 L114.47549,44.9450365 L114.195098,51.4574035 L107.465686,51.4574035 C107.519608,49.0781613 107.569935,46.7097011 107.616667,44.3520229 C107.663399,41.9943448 107.71732,39.6258846 107.778431,37.2466423 C107.8,36.0462391 107.821569,34.856618 107.843137,33.6777789 C107.864706,32.4989399 107.906046,31.3093187 107.967157,30.1089155 C109.360866,29.5914717 110.807585,29.2298675 112.280882,29.0307091 C112.999837,28.9300765 113.718791,28.8617901 114.437745,28.8258498 C115.156699,28.7899096 115.911601,28.7719395 116.702451,28.7719395 C117.870426,28.7681631 119.0328,28.9334037 120.153431,29.2625235 C121.218687,29.5651407 122.218706,30.0623042 123.102941,30.7288843 C123.960733,31.3882356 124.663785,32.2273059 125.162745,33.187195 C125.698751,34.2491866 125.965399,35.4266385 125.939216,36.6158916 Z M118.929412,37.1172576 C118.934811,36.7078208 118.87474,36.3001514 118.751471,35.9096663 C118.638317,35.5599439 118.454818,35.237054 118.212255,34.9608446 C117.969436,34.6896434 117.669173,34.4760036 117.333333,34.3354849 C116.943327,34.1767529 116.5249,34.0996903 116.103922,34.1090615 C115.900212,34.10837 115.696675,34.1209759 115.494608,34.1467987 C115.299757,34.1728383 115.106967,34.2124692 114.917647,34.2654015 L114.669608,40.0877164 L115.047059,40.0877164 C115.5089,40.0859041 115.968808,40.0279749 116.416667,39.9152033 C116.860855,39.8066353 117.283705,39.6244105 117.667647,39.3761001 C118.034069,39.139557 118.343459,38.8247085 118.573529,38.4542336 C118.814451,38.0506726 118.935981,37.5870845 118.92402,37.1172576 L118.929412,37.1172576 Z" id="Shape" fill="#FFFFFF"></path>
                        <polygon id="Shape" fill="#FFFFFF" points="135.472549 29.6506778 133.72549 50.9829927 127.120098 51.3280188 127.120098 30.1035245"></polygon>
                        <path d="M149.993137,41.7739416 L149.993137,43.6068926 C149.993635,44.2190337 149.96304,44.8308052 149.901471,45.4398436 C149.794819,46.7080388 149.509824,47.9548611 149.054902,49.1434828 C148.633025,50.2637846 148.015974,51.3005057 147.232353,52.2055892 C146.449844,53.0841444 145.490715,53.7877261 144.417647,54.2703545 C143.23112,54.8000207 141.942313,55.0614098 140.643137,55.0358811 C140.063416,55.0340614 139.484712,54.987198 138.912255,54.8957143 C138.307421,54.8014823 137.710729,54.6609012 137.127451,54.4752138 C136.544633,54.2910916 135.978272,54.0584633 135.434314,53.7797706 C134.918465,53.5180821 134.436748,53.1939867 134,52.8147758 L134.970588,46.345537 C135.57394,46.9326077 136.265272,47.4218959 137.019608,47.7957247 C137.786317,48.1636132 138.6281,48.3481763 139.478431,48.3348279 C139.975324,48.3488192 140.470087,48.2645438 140.934314,48.0868405 C141.311065,47.9341444 141.648399,47.6982435 141.921078,47.3967883 C142.187853,47.095525 142.397933,46.7485085 142.541176,46.3724922 C142.695727,45.9687025 142.806012,45.5493433 142.870098,45.1217727 C142.93844,44.6681801 142.979853,44.2109388 142.994118,43.7524505 L142.994118,42.3615641 C143.013051,40.7078946 142.948262,39.0543267 142.8,37.4072054 C142.631046,35.7647376 142.485458,34.1186757 142.363235,32.4690198 L149.534804,32 C149.840359,35.2525895 149.993137,38.51057 149.993137,41.7739416 Z" id="Shape" fill="#FFFFFF"></path>
                        <path d="M167.383333,29.1115746 C167.322222,30.0927424 167.264706,31.0631283 167.210784,32.022732 C167.156863,32.9823358 167.088562,33.9527216 167.005882,34.9338895 L160.368137,35.2789155 L160.368137,37.2520334 L166.132353,37.2520334 L165.819608,42.1039625 L160.341176,42.2603024 L160.373529,51.527487 L152.452451,51.6838269 L152.948529,29.1115746 L167.383333,29.1115746 Z" id="Shape" fill="#FFFFFF"></path>
                        <path d="M62.1284314,70.3421898 L62.1284314,72.1751408 C62.1289381,72.7872821 62.0983431,73.399054 62.0367647,74.0080918 C61.9299711,75.2762649 61.64498,76.5230675 61.1901961,77.711731 C60.768319,78.8320328 60.1512683,79.8687538 59.3676471,80.7738373 C58.5930071,81.6557971 57.6413218,82.3648201 56.5745098,82.8547758 C55.3879826,83.3844419 54.0991759,83.6458311 52.8,83.6203024 C52.220283,83.6183742 51.6415881,83.5715115 51.0691176,83.4801356 C50.4642718,83.3859663 49.8675743,83.2453841 49.2843137,83.059635 C48.7015469,82.8753706 48.1351979,82.6427471 47.5911765,82.3641919 C47.0756659,82.1040926 46.5939725,81.7818236 46.1568627,81.4045881 L47.127451,74.9353493 C47.7308026,75.52242 48.4221347,76.0117082 49.1764706,76.385537 C49.9431149,76.7536133 50.7849432,76.9381863 51.6352941,76.9246403 C52.1321867,76.9386315 52.6269498,76.8543561 53.0911765,76.6766528 C53.4679273,76.5239567 53.8052622,76.2880558 54.0779412,75.9866006 C54.3451015,75.6856215 54.5552264,75.3385309 54.6980392,74.9623045 C54.8526298,74.5585278 54.9629166,74.1391642 55.0269608,73.711585 C55.0951535,73.2579744 55.1365651,72.800742 55.1509804,72.3422628 L55.1509804,70.9513764 C55.1519918,69.2967965 55.0692061,67.6432265 54.9029412,65.9970177 C54.7375817,64.3545499 54.5919935,62.708488 54.4661765,61.0588321 L61.6377451,60.5898123 C61.9648693,63.8352138 62.1284314,67.0860063 62.1284314,70.3421898 Z" id="Shape" fill="#FFFFFF"></path>
                        <path d="M78.3480392,60.6706778 C78.2869281,61.6518457 78.2294118,62.6222315 78.1754902,63.5818352 C78.1215686,64.541439 78.053268,65.5118248 77.9705882,66.4929927 L71.3328431,66.8380188 L71.1764706,68.8111366 L75.8406863,68.8111366 L75.4955882,73.6630657 L70.7990196,73.8194056 L70.6426471,76.1052033 L77.2803922,76.1052033 C77.219281,77.2516962 77.1545752,78.391001 77.0862745,79.5231178 C77.0179739,80.6552346 76.9586601,81.7909454 76.9083333,82.9302503 L63.4279412,83.2429301 L63.9294118,60.6706778 L78.3480392,60.6706778 Z" id="Shape" fill="#FFFFFF"></path>
                        <polygon id="Shape" fill="#FFFFFF" points="106.435784 60.7946715 105.308824 82.0191658 97.1019608 82.7685193 92.745098 71.4096142 92.054902 82.9949426 84.9857843 82.9949426 85.525 60.8000626 93.3544118 60.4226903 98.7465686 71.6953389 98.9946078 61.0480501"></polygon>
                        <path d="M126.429902,65.8352868 C126.429902,66.6080014 126.393954,67.4579875 126.322059,68.385245 C126.250163,69.3125026 126.129739,70.2721064 125.960784,71.2640563 C125.795425,72.2560063 125.577941,73.2605353 125.308333,74.2776434 C125.048429,75.2777528 124.716853,76.2578595 124.316176,77.210365 C123.930706,78.1272039 123.467069,79.0091931 122.930392,79.8465798 C122.425351,80.6444932 121.814019,81.3699578 121.113235,82.0029927 C120.436315,82.6089839 119.661419,83.0956988 118.821569,83.4423983 C117.926411,83.8066745 116.967902,83.9899077 116.001471,83.9815016 C114.920649,84.0060797 113.846499,83.8059808 112.847059,83.393879 C111.98629,83.0239017 111.207397,82.4870351 110.555392,81.8143066 C109.908025,81.1345624 109.379432,80.3509504 108.991667,79.4961627 C108.578721,78.5967113 108.258918,77.6573732 108.037255,76.6928259 C107.805411,75.6992436 107.645033,74.690337 107.557353,73.6738478 C107.467484,72.6459576 107.422549,71.6576017 107.422549,70.70878 C107.422965,69.2468288 107.496751,67.7858193 107.643627,66.3312617 C107.791013,64.875683 107.99951,63.4219013 108.269118,61.9699166 L115.597059,62.2502503 C115.316667,63.878342 115.068627,65.5190129 114.852941,67.1722628 C114.648559,68.826647 114.545915,70.4920119 114.545588,72.1589677 L114.545588,72.9514494 C114.545588,73.3000695 114.574346,73.6918179 114.631863,74.1266945 C114.675,74.5615711 114.734314,75.0054327 114.809804,75.4582795 C114.880855,75.8820833 114.989117,76.2988041 115.133333,76.7036079 C115.24507,77.0357867 115.410859,77.3472583 115.62402,77.6254745 C115.780695,77.8464289 116.032602,77.980352 116.303431,77.9866736 C116.626959,77.9765988 116.927598,77.8173531 117.117647,77.555391 C117.391211,77.2100518 117.606165,76.8221218 117.753922,76.4071011 C117.955018,75.8663405 118.115431,75.3113171 118.233824,74.7466632 C118.370425,74.1213034 118.485458,73.4689885 118.578922,72.7897185 C118.672386,72.1104484 118.747876,71.4311783 118.805392,70.7519082 C118.862908,70.0726382 118.909641,69.4418874 118.945588,68.8596559 C118.981536,68.2774244 119.004902,67.7616823 119.015686,67.3124296 L119.015686,66.3096976 C119.015686,65.4974487 119.003105,64.6851999 118.977941,63.872951 C118.952778,63.0607021 118.913235,62.2538443 118.859314,61.4523775 L126.187255,61.4523775 C126.34902,62.8935801 126.429902,64.3545499 126.429902,65.8352868 Z" id="Shape" fill="#FFFFFF"></path>
                        <polygon id="Shape" fill="#FFFFFF" points="142.401471 61.20439 140.681373 82.5259228 134.07598 82.8709489 134.07598 61.6410636"></polygon>
                        <polygon id="Shape" fill="#FFFFFF" points="164.778922 60.7946715 163.651961 82.0191658 155.445098 82.7685193 151.061275 71.4042231 150.371078 82.9895516 143.323529 82.9895516 143.862745 60.7946715 151.692157 60.4172993 157.084314 71.6899479 157.332353 61.042659"></polygon>
                        <path d="M173.719118,59.9806257 L172.435784,76.4502294 L166.617647,76.4502294 L166.02451,59.9806257 L173.719118,59.9806257 Z M172.683824,81.2698123 C172.688012,81.7114193 172.597936,82.1488399 172.419608,82.552878 C172.248272,82.9404573 172.006991,83.2931657 171.707843,83.5933472 C171.408847,83.8925661 171.055683,84.1322289 170.667157,84.2995725 C170.267181,84.4724041 169.835728,84.5605122 169.4,84.558342 C168.95892,84.5618124 168.521922,84.4736968 168.116667,84.2995725 C167.331332,83.9636004 166.70565,83.3380486 166.369608,82.552878 C166.195447,82.1477072 166.107313,81.7108005 166.110784,81.2698123 C166.112168,80.3933381 166.45895,79.5527127 167.07598,78.9301043 C167.376382,78.6312081 167.729126,78.3900029 168.116667,78.218488 C168.52089,78.0405133 168.958333,77.9504703 169.4,77.9543274 C169.836336,77.9516142 170.268265,78.0416573 170.667157,78.218488 C171.054697,78.3900029 171.407442,78.6312081 171.707843,78.9301043 C172.01191,79.240668 172.253535,79.6066903 172.419608,80.0083107 C172.592864,80.4063779 172.682781,80.8356909 172.683824,81.2698123 Z" id="Shape" fill="#FFFFFF"></path>
                    </g>
                </g>
            </g>
        </g>
    </g>
</svg>