<?xml version="1.0" encoding="UTF-8"?>
<svg width="1440px" height="388px" viewBox="0 0 1440 388" version="1.1" xmlns="http://www.w3.org/2000/svg" xmlns:xlink="http://www.w3.org/1999/xlink">
    <!-- Generator: Sketch 42 (36781) - http://www.bohemiancoding.com/sketch -->
    <title>footer_bground</title>
    <desc>Created with Sketch.</desc>
    <defs>
        <rect id="path-1" x="0" y="0" width="1440" height="389"></rect>
        <radialGradient cx="50%" cy="0%" fx="50%" fy="0%" r="304.481786%" id="radialGradient-3">
            <stop stop-color="#B4ED50" offset="0%"></stop>
            <stop stop-color="#429321" offset="100%"></stop>
        </radialGradient>
    </defs>
    <g id="Page-1" stroke="none" stroke-width="1" fill="none" fill-rule="evenodd">
        <g id="Desktop-HD" transform="translate(0.000000, -2092.000000)">
            <g id="Footer" transform="translate(0.000000, 2091.000000)">
                <g id="footer_bground">
                    <mask id="mask-2" fill="white">
                        <use xlink:href="#path-1"></use>
                    </mask>
                    <g id="Rectangle-5"></g>
                    <path d="M0,261 C0,261 139.177602,272.576173 335.882812,267.664063 C488.494661,263.853049 795.291805,224.234405 904.511719,244.058594 C1017.51953,264.570312 1440,261 1440,261 L1440,599 L0,599 L0,261 Z" id="grass-BG" fill="url(#radialGradient-3)" mask="url(#mask-2)"></path>
                    <g id="Trees" mask="url(#mask-2)">
                        <g transform="translate(59.000000, 0.000000)">
                            <g id="Tree-1" transform="translate(0.000000, 93.000000)">
                                <path d="M172.416998,220.869029 C172.416998,226.415938 133.819317,230.913169 86.2085803,230.913169 C38.597031,230.913169 0.000162441315,226.415938 0.000162441315,220.869029 C0.000162441315,215.32212 38.597031,210.825701 86.2085803,210.825701 C133.819317,210.825701 172.416998,215.32212 172.416998,220.869029" id="Fill-1" fill="#EBEDE2" style="mix-blend-mode: multiply;"></path>
                                <path d="M41.196092,230.356937 C41.0726366,230.368294 41.0076601,230.373972 41.0076601,230.373972 C41.0076601,230.373972 41.0750732,230.371538 41.196092,230.356937" id="Fill-4" fill="#6E472A"></path>
                                <path d="M94.2576286,159.423018 C94.2576286,159.423018 109.844685,153.435634 114.341061,148.346235 C118.837436,143.256025 136.424957,110.145731 136.424957,110.145731 L135.825549,108.649088 C135.825549,108.649088 120.32215,133.704277 114.212732,142.620053 L109.448328,122.743494 L107.649291,124.196333 L111.751746,145.801536 C109.155934,147.743522 96.5147507,153.136305 91.2605864,153.136305 C85.8650981,153.136305 77.1720512,143.447466 77.4717554,125.090263 L76.2721263,125.090263 C76.2721263,125.090263 71.5564549,145.049564 82.2678352,155.530934 C82.2678352,155.530934 65.0474315,153.41941 59.9516474,150.126794 C54.8558634,146.833368 44.7983094,132.180053 44.7983094,132.180053 L43.9000089,133.676697 C43.9000089,133.676697 52.2925394,149.54355 56.788915,152.238319 C61.2844784,154.932277 74.1741967,160.919662 74.1741967,160.919662 C74.1741967,160.919662 77.1306286,177.914067 73.176807,198.840305 C70.1797648,214.706347 49.7186568,220.860836 48.5978117,220.994683 C50.4658869,220.814599 98.6565394,215.606766 118.739971,222.492137 C118.739971,222.492137 101.954098,209.917088 98.9562437,200.038431 C95.9583892,190.158962 92.1596991,169.601815 94.2576286,159.423018" id="Fill-7" fill="#6E472A"></path>
                                <path d="M76.0249718,160.520638 C76.0249718,160.520638 81.5707183,160.819966 85.167169,159.77191 C85.167169,159.77191 86.6665023,198.09247 86.0670939,203.631267 C85.4676854,209.170064 78.8725681,216.654092 78.8725681,216.654092 C78.8725681,216.654092 66.7325164,216.953421 61.9364366,218.149924 C61.9364366,218.149924 72.8776714,213.211407 74.8261549,201.235827 C76.7746385,189.261057 76.9248967,165.760106 76.0249718,160.520638" id="Fill-9" fill="#7F553D"></path>
                                <path d="M19.8967056,104.6088 C19.8967056,104.6088 2.14836761,95.0286601 6.54484178,66.6881566 C10.9421282,38.346842 45.914931,37.1495273 45.914931,37.1495273 C45.914931,37.1495273 42.5158465,10.0063385 69.293485,2.42253427 C96.0711235,-5.16208112 123.916814,15.0551776 118.6594,41.5396811 C118.6594,41.5396811 143.631504,47.9269818 144.030297,68.2845762 C144.430715,88.6421706 116.853865,98.5240727 116.853865,98.5240727 L19.8967056,104.6088 Z" id="Fill-11" fill="#82B71C"></path>
                                <path d="M17.1364216,58.498151 C17.1364216,58.498151 22.9315155,44.3274937 50.1087596,39.9373399 C50.1087596,39.9373399 50.6440038,18.5000531 65.6316516,10.199158 C78.7853371,2.91387133 92.8738723,8.60273846 94.6712854,11.9951301 C96.4695108,15.3875217 78.0567878,11.780165 71.5916235,15.7866266 C57.9026939,24.269228 65.0834122,39.0385427 56.8029662,45.6245846 C48.5233324,52.2114378 39.4176845,49.6156336 27.7275953,56.5018154 C19.5665437,61.3089203 14.7379756,64.6850881 17.1364216,58.498151" id="Fill-14" fill="#90C125"></path>
                                <path d="M133.021812,68.5611916 C144.01584,63.7711217 170.993281,68.9619189 164.398976,99.2979469 C164.398976,99.2979469 158.151483,121.556157 133.62122,112.269667 C133.62122,112.269667 122.433075,125.441751 105.047793,118.855709 C105.047793,118.855709 82.267023,132.028604 67.2793751,109.875038 C52.2925394,87.7214713 64.7347319,55.2333594 92.9849009,52.915793 C121.23507,50.5982266 133.021812,68.5611916 133.021812,68.5611916" id="Fill-16" fill="#96C639"></path>
                                <path d="M159.4035,83.530951 C158.403673,80.5368531 151.608753,69.559035 132.225443,72.3535804 C132.225443,72.3535804 123.232692,61.9752308 109.844279,57.9833706 C96.4550535,53.9915105 84.2654573,57.9825594 83.2664432,62.3743357 C82.2666169,66.7653007 97.7375277,63.4345594 104.049185,65.1688811 C121.430406,69.9443497 123.032889,78.9396224 129.826997,79.7378322 C136.621917,80.5368531 144.216049,80.7372168 150.011143,83.530951 C155.806237,86.3238741 160.802119,87.7223636 159.4035,83.530951" id="Fill-18" fill="#A9D146"></path>
                                <path d="M41.0057108,90.2319385 C30.0124948,85.4418685 3.03505352,90.6318545 9.62935869,120.968694 C9.62935869,120.968694 15.8768516,143.228526 40.4063023,133.941225 C40.4063023,133.941225 51.5944479,147.11412 68.9797296,140.528078 C68.9797296,140.528078 91.7613117,153.700162 106.748147,131.546596 C121.735795,109.392218 109.292791,76.9041063 81.0434338,74.5865399 C52.7932648,72.2697846 41.0057108,90.2319385 41.0057108,90.2319385" id="Fill-20" fill="#A9DB52"></path>
                                <path d="M14.6248352,105.201292 C15.6238493,102.207194 22.4187695,91.2301874 41.8020793,94.0247329 C41.8020793,94.0247329 50.7948305,83.6463832 64.1840559,79.6545231 C77.572469,75.6626629 89.7628775,79.6537119 90.7618915,84.0446769 C91.7609056,88.4364531 76.2209573,84.8688448 69.9791498,86.8392224 C52.5979291,92.3277259 50.9946333,100.610775 44.2005254,101.408985 C37.4064174,102.207194 29.8122859,102.407558 24.017192,105.201292 C18.2220981,107.995027 13.2262155,109.392705 14.6248352,105.201292" id="Fill-22" fill="#B6E55C"></path>
                            </g>
                            <g id="Tree-2" transform="translate(1085.000000, 59.000000)">
                                <path d="M244.204,233.3012 C244.204,240.1392 196.682,245.6832 138.063,245.6832 C79.443,245.6832 31.922,240.1392 31.922,233.3012 C31.922,226.4632 79.443,220.9202 138.063,220.9202 C196.682,220.9202 244.204,226.4632 244.204,233.3012" id="Fill-1" fill="#EBEDE2" style="mix-blend-mode: multiply;"></path>
                                <path d="M105.9619,230.7104 C105.9619,230.7104 125.2959,219.0444 124.9619,202.7104 C124.6279,186.3774 122.6279,156.3774 117.6279,152.7104 C112.6279,149.0444 84.6279,145.0434 82.2949,143.3774 C79.9619,141.7104 64.9619,110.4604 64.9619,110.4604 L68.6279,109.0444 C68.6279,109.0444 82.9609,138.0444 85.6279,139.7104 C88.2949,141.3774 109.2949,140.3774 109.2949,140.3774 C109.2949,140.3774 97.2959,131.7104 95.9619,128.3774 C94.6279,125.0444 91.2949,107.0444 91.2949,107.0444 L93.6279,107.0444 C93.6279,107.0444 99.6279,124.7114 101.2949,127.0444 C102.9619,129.3774 118.9699,139.7114 124.9659,141.0444 C130.9619,142.3774 138.9619,127.3774 140.2949,121.7104 C141.6279,116.0444 143.9619,101.0444 143.9619,101.0444 L145.6279,101.0444 C145.6279,101.0444 142.2939,132.7114 143.6279,136.0444 C144.9619,139.3774 164.9619,133.0444 168.2949,130.0444 C171.6279,127.0444 185.2949,109.0444 185.2949,109.0444 L187.9619,110.4604 C187.9619,110.4604 172.6279,134.7104 171.2949,135.7104 C169.9619,136.7104 157.2949,146.0444 157.2949,146.0444 C157.2949,146.0444 174.9619,150.3774 181.2949,148.7104 C187.6279,147.0444 208.9619,128.0444 208.9619,128.0444 L211.2949,129.3774 C211.2949,129.3774 188.9619,150.3774 182.2949,153.3774 C175.6279,156.3774 152.6279,153.7104 152.6279,153.7104 C152.6279,153.7104 151.2949,186.7114 153.2949,200.0444 C155.2949,213.3774 175.2949,230.7104 175.2949,230.7104 C175.2949,230.7104 140.6289,221.7104 105.9619,230.7104" id="Fill-4" fill="#6E472A"></path>
                                <path d="M121.4609,150.7108 C121.4609,150.7108 125.4609,157.4608 126.7109,172.7108 C127.9609,187.9608 128.4609,207.9608 126.7109,212.7108 C124.9609,217.4608 119.7109,223.7108 119.7109,223.7108 C119.7109,223.7108 139.2109,221.2108 144.4609,221.9608 C144.4609,221.9608 138.0469,183.7108 138.1289,174.9608 C138.2109,166.2108 136.2109,141.4608 136.2109,141.4608 C136.2109,141.4608 130.7109,153.9608 121.4609,150.7108" id="Fill-6" fill="#7F553D"></path>
                                <path d="M75.0283,121.537 C75.0283,121.537 73.7383,142.871 35.6873,146.204 C-2.3627,149.537 -6.8777,103.204 7.6323,86.204 C22.1443,69.204 38.9123,67.029 38.9123,67.029 C38.9123,67.029 24.6283,39.711 56.3263,19.537 C83.1643,2.456 104.3723,19.537 104.3723,19.537 C104.3723,19.537 120.1743,-3.796 163.0603,0.537 C205.9473,4.87 221.5873,52.282 221.5873,52.282 C221.5873,52.282 254.9303,47.674 264.2823,78.469 C271.9673,103.778 263.9703,136.661 229.8103,143.87 C195.6503,151.08 184.3413,126.537 180.1503,117.204 C180.1503,117.204 149.1943,136.537 128.5563,112.87 C128.5563,112.87 98.5683,136.87 75.0283,121.537" id="Fill-8" fill="#82B71C"></path>
                                <path d="M119.9609,18.0443 C123.1279,12.0843 145.6279,4.3773 170.9609,11.0443 C196.2939,17.7113 214.2939,48.0283 215.2939,60.2033 C216.2939,72.3773 202.9609,65.7113 198.9609,53.7113 C194.9609,41.7113 179.2939,26.0443 164.9609,24.0443 C150.6279,22.0443 114.2939,28.7113 119.9609,18.0443" id="Fill-11" fill="#90C125"></path>
                                <path d="M45.2949,60.7021 C40.9829,57.2521 44.3159,35.6701 61.7949,26.0011 C78.7429,16.6261 97.7949,19.8011 100.2949,26.0011 C102.7949,32.2021 79.4629,33.9681 70.0709,36.9571 C54.0719,42.0501 57.7949,70.7021 45.2949,60.7021" id="Fill-13" fill="#90C125"></path>
                            </g>
                            <g id="Tree-3" transform="translate(990.000000, 31.000000)">
                                <path d="M226.4065,288.6162 C226.4065,295.4542 178.8845,300.9982 120.2655,300.9982 C61.6455,300.9982 14.1245,295.4542 14.1245,288.6162 C14.1245,281.7782 61.6455,276.2352 120.2655,276.2352 C178.8845,276.2352 226.4065,281.7782 226.4065,288.6162" id="Fill-1" fill="#EBEDE2" style="mix-blend-mode: multiply;"></path>
                                <path d="M74.5447,284.9785 C74.5447,284.9785 91.2617,282.4685 92.5157,269.0955 C93.7697,255.7225 95.4407,211.0035 89.1717,204.7345 C82.9027,198.4645 67.4397,189.6875 66.6037,187.5975 C65.7677,185.5095 57.8267,163.3595 57.8267,163.3595 L61.1697,163.3595 C61.1697,163.3595 72.8047,184.2535 75.7637,186.3455 C78.7237,188.4355 93.7697,196.3765 96.6947,195.5405 C99.6197,194.7055 89.1717,174.6425 89.1717,174.6425 L89.1717,151.2385 L92.0977,151.2385 C92.0977,151.2385 92.0977,172.9705 94.1877,175.0605 C96.2767,177.1505 104.6367,194.6035 108.8157,192.3555 C112.9947,190.1075 140.9957,157.5075 140.9957,157.5075 L144.3387,160.4335 C144.3387,160.4335 118.4267,190.4255 119.2627,192.3555 C120.0997,194.2855 152.2797,195.1215 152.2797,195.1215 L177.3557,176.3145 L179.0287,179.2405 C179.0287,179.2405 156.0417,200.1365 153.1167,200.9725 C150.1907,201.8085 122.1897,203.4825 121.3537,205.5705 C120.5167,207.6605 121.1607,263.5915 121.9787,268.4165 C123.5077,277.4455 139.7427,284.9785 139.7427,284.9785 C139.7427,284.9785 110.4867,280.3805 74.5447,284.9785" id="Fill-4" fill="#6E472A"></path>
                                <path d="M93.2757,204.5625 C93.2757,204.5625 97.5387,212.2105 97.5387,230.3285 C97.5387,248.4455 97.8927,276.8615 90.8777,280.4165 C90.8777,280.4165 104.1987,278.2855 109.5277,278.5505 L104.9987,198.3575 C104.9987,198.3575 97.3797,204.3905 93.2757,204.5625" id="Fill-6" fill="#7F553D"></path>
                                <path d="M2.8841,164.6113 C2.8841,164.6113 10.6001,185.9273 34.0051,180.9123 C57.0951,175.9653 61.8581,162.2383 61.8581,162.2383 C61.8581,162.2383 73.5301,174.3573 94.6251,168.9723 C115.7221,163.5883 121.1081,148.7753 121.1081,148.7753 C121.1081,148.7753 119.5961,166.7813 137.6341,175.0603 C155.6701,183.3363 167.7891,178.4003 167.7891,178.4003 C167.7891,178.4003 165.5451,194.0063 189.3351,199.2183 C213.1261,204.4333 232.0711,179.2953 228.0311,157.3023 C223.9911,135.3083 206.3931,126.7793 206.3931,126.7793 C206.3931,126.7793 224.1631,111.7673 213.8391,88.7523 C203.5141,65.7343 180.8081,68.8753 180.8081,68.8753 C180.8081,68.8753 190.3131,48.0073 174.5231,31.1723 C158.1091,13.6703 139.0651,19.6723 133.2281,21.0173 C133.2281,21.0173 124.4041,-5.6617 91.6701,1.0973 C62.8421,7.0503 59.6141,33.1523 65.0011,45.2713 C65.0011,45.2713 33.4721,43.0333 24.1541,67.0803 C12.2721,97.7423 35.3761,114.6603 35.3761,114.6603 C35.3761,114.6603 -11.9679,121.1463 2.8841,164.6113" id="Fill-8" fill="#96C639"></path>
                                <path d="M75.9578,21.7187 C77.5238,16.8457 89.8118,9.1977 102.8668,9.1977 C115.9208,9.1977 127.3768,24.9157 128.4438,28.3787 C128.4438,28.3787 143.0968,24.3827 155.8848,28.3787 C168.6728,32.3747 177.7318,53.9547 176.1328,64.3457 C174.5348,74.7367 162.5448,73.6717 163.0788,64.3457 C163.6118,55.0217 158.5488,41.9667 148.6918,38.2367 C138.8338,34.5077 127.6438,40.6347 122.3158,32.3747 C116.9868,24.1167 106.5968,18.5217 97.8048,20.3867 C89.0128,22.2517 73.5608,29.1777 75.9578,21.7187" id="Fill-10" fill="#A9D146"></path>
                                <path d="M163.5013,179.6328 C163.5013,179.6328 158.0513,194.6858 141.5223,191.1448 C125.2153,187.6508 121.8533,177.9568 121.8533,177.9568 C121.8533,177.9568 113.6093,186.5158 98.7123,182.7128 C83.8143,178.9098 80.0103,168.4468 80.0103,168.4468 C80.0103,168.4468 81.0773,181.1658 68.3383,187.0118 C55.6013,192.8558 47.0433,189.3688 47.0433,189.3688 C47.0433,189.3688 48.6273,200.3908 31.8273,204.0718 C15.0253,207.7558 1.6473,190.0018 4.4993,174.4728 C7.3523,158.9398 19.7803,152.9158 19.7803,152.9158 C19.7803,152.9158 7.2313,142.3148 14.5223,126.0608 C21.8143,109.8048 37.8493,112.0238 37.8493,112.0238 C37.8493,112.0238 31.1363,97.2848 42.2883,85.3968 C53.8793,73.0368 67.3283,77.2758 71.4503,78.2248 C71.4503,78.2248 77.6823,59.3828 100.8003,64.1558 C121.1573,68.3618 123.4373,86.7948 119.6333,95.3558 C119.6333,95.3558 141.8983,93.7738 148.4793,110.7558 C156.8703,132.4098 140.5543,144.3578 140.5543,144.3578 C140.5543,144.3578 173.9893,148.9378 163.5013,179.6328" id="Fill-12" fill="#A9DB52"></path>
                                <path d="M111.8948,78.7207 C110.7888,75.2797 102.1118,69.8767 92.8918,69.8767 C83.6718,69.8767 75.5818,80.9787 74.8298,83.4237 C74.8298,83.4237 64.4808,80.6017 55.4498,83.4237 C46.4188,86.2457 40.0218,101.4867 41.1508,108.8247 C42.2798,116.1617 50.7458,115.4097 50.3698,108.8247 C49.9938,102.2387 53.5688,93.0197 60.5298,90.3867 C67.4918,87.7517 75.3938,92.0797 79.1568,86.2457 C82.9198,80.4137 90.2578,76.4627 96.4668,77.7797 C102.6748,79.0957 113.5878,83.9887 111.8948,78.7207" id="Fill-14" fill="#B6E55C"></path>
                            </g>
                            <g id="Tree-4" transform="translate(656.000000, 0.000000)">
                                <path d="M235.5341,292.6772 C235.5341,299.5152 188.0121,305.0592 129.3931,305.0592 C70.7721,305.0592 23.2521,299.5152 23.2521,292.6772 C23.2521,285.8392 70.7721,280.2962 129.3931,280.2962 C188.0121,280.2962 235.5341,285.8392 235.5341,292.6772" id="Fill-1" fill="#EBEDE2" style="mix-blend-mode: multiply;"></path>
                                <path d="M75.9354,167.7504 C75.9354,167.7504 76.7494,186.0964 84.0874,192.6174 C91.4264,199.1414 105.6964,208.5184 105.6964,208.5184 C105.6964,208.5184 111.4044,274.1544 83.2744,286.3854 C83.2744,286.3854 118.3334,283.1214 144.8314,284.7524 C144.8314,284.7524 129.3414,229.3114 133.4174,211.7794 C133.4174,211.7794 157.0644,199.1414 162.7704,191.3954 C168.4774,183.6504 181.1174,159.1894 181.1174,159.1894 L174.1854,159.1894 C174.1854,159.1894 161.9544,182.8364 158.6944,186.0964 C155.4334,189.3574 128.5264,198.3264 128.5264,198.3264 C128.5264,198.3264 138.3104,187.3164 143.2034,178.3504 C148.0944,169.3814 150.5394,153.8894 150.5394,153.8894 L146.0554,153.8894 C146.0554,153.8894 138.3104,172.6414 135.0484,177.1274 C131.7874,181.6114 120.7804,192.2114 120.7804,192.2114 C120.7804,192.2114 106.1034,181.6114 103.2494,176.7194 C100.3964,171.8264 92.6494,147.7734 92.6494,147.7734 L87.3494,147.7734 L97.1344,179.1644 L114.2564,195.4714 C114.2564,195.4714 97.1334,191.3954 92.6494,189.3574 C88.1654,187.3184 80.0124,166.5274 80.0124,166.5274 L75.9354,167.7504 Z" id="Fill-4" fill="#6E472A"></path>
                                <path d="M110.1386,208.1899 C110.1386,208.1899 110.1386,264.7359 97.4716,280.2959 C97.4716,280.2959 110.4886,277.8569 115.3136,278.1899 L117.8046,208.1899 L110.1386,208.1899 Z" id="Fill-6" fill="#7F553D"></path>
                                <path d="M104.0634,160.0063 C104.0634,160.0063 73.0824,178.2443 44.5434,164.4363 C16.0054,150.6273 6.0184,110.2683 24.9754,80.9143 C38.1144,60.5703 64.1124,55.6393 64.1124,55.6393 C64.1124,55.6393 53.8574,23.8403 93.2294,5.9023 C132.6034,-12.0347 168.0714,23.8403 168.8854,39.7383 C168.8854,39.7383 205.1674,24.7793 231.6674,56.9853 C258.1674,89.1923 248.1394,151.8583 195.7924,159.5963 C195.7924,159.5963 175.0014,185.2793 144.8324,184.0553 C114.6654,182.8343 104.0634,160.0063 104.0634,160.0063" id="Fill-8" fill="#82B71C"></path>
                                <path d="M75.9354,33.8286 C78.7704,24.8966 89.7954,13.6466 111.2004,11.2016 C132.6034,8.7566 158.8974,25.2656 160.7324,49.7266 C160.7324,49.7266 182.7464,43.0006 202.9264,49.7266 C223.1064,56.4536 231.6674,80.3266 230.4454,101.7176 C229.2214,123.1096 216.3794,110.8796 215.1564,98.0376 C213.9344,85.1956 208.4294,69.1256 189.4724,64.9306 C170.5174,60.7346 155.8404,71.7426 143.6104,46.0586 C131.3794,20.3756 119.1484,22.8206 109.3654,24.0436 C99.5814,25.2656 71.8594,46.6706 75.9354,33.8286" id="Fill-11" fill="#90C125"></path>
                                <path d="M95.9892,171.3793 C95.9892,171.3793 116.9682,183.7293 136.2942,174.3813 C155.6192,165.0293 162.3822,137.6993 149.5452,117.8243 C140.6482,104.0473 123.0442,100.7073 123.0442,100.7073 C123.0442,100.7073 129.9872,79.1743 103.3272,67.0273 C76.6662,54.8833 52.6482,79.1743 52.0952,89.9413 C52.0952,89.9413 27.5272,79.8113 9.5842,101.6193 C-8.3608,123.4283 -1.5698,165.8633 33.8772,171.1043 C33.8772,171.1043 47.9542,188.4923 68.3832,187.6663 C88.8122,186.8383 95.9892,171.3793 95.9892,171.3793" id="Fill-13" fill="#96C639"></path>
                                <path d="M115.038,85.9379 C113.119,79.8909 105.652,72.2739 91.157,70.6179 C76.666,68.9589 58.86,80.1409 57.618,96.7039 C57.618,96.7039 42.71,92.1489 29.045,96.7039 C15.382,101.2579 9.584,117.4259 10.411,131.9109 C11.239,146.3929 19.934,138.1139 20.764,129.4179 C21.593,120.7209 25.318,109.8399 38.154,106.9999 C50.992,104.1569 60.93,111.6119 69.211,94.2209 C77.493,76.8289 85.775,78.4849 92.402,79.3129 C99.026,80.1409 117.799,94.6349 115.038,85.9379" id="Fill-16" fill="#A9D146"></path>
                            </g>
                        </g>
                    </g>
                </g>
            </g>
        </g>
    </g>
</svg>